0
SECTION
2
HEADER
9
$INSUNITS
70
4
9
$ACADVER
1
AC1014
9
$HANDSEED
5
FFFF
0
ENDSEC
0
SECTION
2
TABLES
0
TABLE
2
VPORT
5
8
100
AcDbSymbolTable
0
ENDTAB
0
TABLE
2
LTYPE
5
5
100
AcDbSymbolTable
0
LTYPE
5
14
100
AcDbSymbolTableRecord
100
AcDbLinetypeTableRecord
2
BYBLOCK
70
0
0
LTYPE
5
15
100
AcDbSymbolTableRecord
100
AcDbLinetypeTableRecord
2
BYLAYER
70
0
0
ENDTAB
0
TABLE
2
LAYER
5
2
100
AcDbSymbolTable
70
2
0
LAYER
5
50
100
AcDbSymbolTableRecord
100
AcDbLayerTableRecord
2
0
70
0
6
CONTINUOUS
0
ENDTAB
0
TABLE
2
STYLE
5
3
100
AcDbSymbolTable
70
1
0
STYLE
5
11
100
AcDbSymbolTableRecord
100
AcDbTextStyleTableRecord
2
STANDARD
70
0
0
ENDTAB
0
TABLE
2
VIEW
5
6
100
AcDbSymbolTable
70
0
0
ENDTAB
0
TABLE
2
UCS
5
7
100
AcDbSymbolTable
70
0
0
ENDTAB
0
TABLE
2
APPID
5
9
100
AcDbSymbolTable
70
2
0
APPID
5
12
100
AcDbSymbolTableRecord
100
AcDbRegAppTableRecord
2
ACAD
70
0
0
ENDTAB
0
TABLE
2
DIMSTYLE
5
A
100
AcDbSymbolTable
70
1
0
ENDTAB
0
TABLE
2
BLOCK_RECORD
5
1
100
AcDbSymbolTable
70
1
0
BLOCK_RECORD
5
1F
100
AcDbSymbolTableRecord
100
AcDbBlockTableRecord
2
*MODEL_SPACE
0
BLOCK_RECORD
5
1B
100
AcDbSymbolTableRecord
100
AcDbBlockTableRecord
2
*PAPER_SPACE
0
ENDTAB
0
ENDSEC
0
SECTION
2
BLOCKS
0
BLOCK
5
20
100
AcDbEntity
100
AcDbBlockBegin
2
*MODEL_SPACE
0
ENDBLK
5
21
100
AcDbEntity
100
AcDbBlockEnd
0
BLOCK
5
1C
100
AcDbEntity
100
AcDbBlockBegin
2
*PAPER_SPACE
0
ENDBLK
5
1D
100
AcDbEntity
100
AcDbBlockEnd
0
ENDSEC
0
SECTION
2
ENTITIES
0
LWPOLYLINE
5
100
100
AcDbEntity
8
0
100
AcDbPolyline
90
8
70
1
43
0.0
10
-7.0000001043081284
20
-6.4999999403953579
10
-7.0000001043081284
20
-9.5000000596046448
42
0.41421356237309503
10
-4.5000001043081292
20
-12.000000059604643
10
4.5000001043081275
20
-12.000000059604645
42
0.41421356237309509
10
7.0000001043081284
20
-9.5000000596046448
10
7.0000001043081284
20
-6.4999999403953552
42
0.41421356237309503
10
4.5000001043081292
20
-3.9999999403953534
10
-4.5000001043081275
20
-3.9999999403953557
42
0.41421356237309537
0
CIRCLE
5
101
100
AcDbEntity
8
0
100
AcDbCircle
10
-16.000000000000014
20
-11.236471658107533
30
0
40
1.6500000000000004
210
0
220
-0
230
1
0
CIRCLE
5
102
100
AcDbEntity
8
0
100
AcDbCircle
10
-16.000000000000014
20
-31.85630183909165
30
0
40
1.6500000000000004
210
0
220
-0
230
1
0
CIRCLE
5
103
100
AcDbEntity
8
0
100
AcDbCircle
10
16.000000000000014
20
-11.236471658107533
30
0
40
1.6500000000000004
210
0
220
-0
230
1
0
CIRCLE
5
104
100
AcDbEntity
8
0
100
AcDbCircle
10
16.000000000000014
20
-31.85630183909165
30
0
40
1.6500000000000004
210
0
220
-0
230
1
0
LWPOLYLINE
5
105
100
AcDbEntity
8
0
100
AcDbPolyline
90
6
70
1
43
0.0
10
-31.75
20
-2.5000000000000009
42
-0.41421356237309531
10
-29.25
20
0
10
29.25
20
1.1102230246251565e-15
42
-0.41421356237309515
10
31.75
20
-2.5
10
31.75
20
-51.342773497199197
42
-0.99999999999999989
10
-31.75
20
-51.342773497199197
0
LINE
5
106
100
AcDbEntity
8
0
100
AcDbLine
10
0
20
0
30
0
11
-1.9441267936464228e-15
21
-83.092773497199204
31
0
0
LINE
5
107
100
AcDbEntity
8
0
100
AcDbLine
10
-9.7206339682321142e-16
20
-41.546386748599602
30
0
11
31.749999999999993
21
-41.546386748599602
31
0
0
LINE
5
108
100
AcDbEntity
8
0
100
AcDbLine
10
-9.7206339682321142e-16
20
-41.546386748599602
30
0
11
-31.75
21
-41.546386748599602
31
0
0
CIRCLE
5
109
100
AcDbEntity
8
0
100
AcDbCircle
10
23.749999999999996
20
-46.546386748599602
30
0
40
0.003497424231149722
210
0
220
0
230
1
0
LINE
5
110
100
AcDbEntity
8
0
100
AcDbLine
10
23.749999999999996
20
-46.546386748599602
30
0
11
23.749999999999996
21
-46.575002212193795
31
0
0
CIRCLE
5
111
100
AcDbEntity
8
0
100
AcDbCircle
10
-23.749999999999996
20
-46.546386748599602
30
0
40
0.003497424231149722
210
0
220
0
230
1
0
LINE
5
112
100
AcDbEntity
8
0
100
AcDbLine
10
-23.749999999999996
20
-46.546386748599602
30
0
11
-23.749999999999996
21
-46.575002212193795
31
0
0
LINE
5
113
100
AcDbEntity
8
0
100
AcDbLine
10
26.972207918522351
20
-68.092773497199204
30
0
11
-26.972207918522351
21
-68.092773497199204
31
0
0
LINE
5
114
100
AcDbEntity
8
0
100
AcDbLine
10
0
20
-68.092773497199204
30
0
11
8.6602540378443891
21
-73.092773497199204
31
0
0
LINE
5
115
100
AcDbEntity
8
0
100
AcDbLine
10
0
20
-68.092773497199204
30
0
11
4.9999999999999991
21
-68.092773497199204
31
0
0
CIRCLE
5
116
100
AcDbEntity
8
0
100
AcDbCircle
10
8.6602540378443891
20
-73.092773497199204
30
0
40
0.0050000000000000001
210
0
220
0
230
1
0
LINE
5
117
100
AcDbEntity
8
0
100
AcDbLine
10
8.6602540378443891
20
-73.092773497199204
30
0
11
9.1602540378443891
21
-73.381448631794044
31
0
0
CIRCLE
5
118
100
AcDbEntity
8
0
100
AcDbCircle
10
-8.6602540378443926
20
-73.092773497199204
30
0
40
0.0050000000000000001
210
0
220
0
230
1
0
LINE
5
119
100
AcDbEntity
8
0
100
AcDbLine
10
-8.6602540378443926
20
-73.092773497199204
30
0
11
-9.1602540378443891
21
-73.381448631794044
31
0
0
LINE
5
120
100
AcDbEntity
8
0
100
AcDbLine
10
6.4000000000000057
20
-15.546386748599588
30
0
11
6.4000000000000048
21
-27.546386748599588
31
0
0
LINE
5
121
100
AcDbEntity
8
0
100
AcDbLine
10
-6.4000000000000057
20
-15.546386748599591
30
1.1102230246251565e-15
11
-6.4000000000000048
21
-27.546386748599598
31
1.1102230246251565e-15
0
LINE
5
122
100
AcDbEntity
8
0
100
AcDbLine
10
-6.4000000000000048
20
-27.546386748599598
30
1.1102230246251565e-15
11
-6.4000000000000057
21
-15.546386748599591
31
1.1102230246251565e-15
0
ARC
5
123
100
AcDbEntity
8
0
100
AcDbCircle
10
-16.000000000000014
20
-13.672523206165828
30
0
40
5
210
-0
220
0
230
1
100
AcDbArc
50
0
51
180
0
ARC
5
124
100
AcDbEntity
8
0
100
AcDbCircle
10
16.000000000000014
20
-13.672523206165828
30
0
40
5
210
0
220
0
230
1
100
AcDbArc
50
0
51
180
0
ARC
5
125
100
AcDbEntity
8
0
100
AcDbCircle
10
16.000000000000011
20
-29.420250291033362
30
0
40
4.9999999999999982
210
0
220
0
230
1
100
AcDbArc
50
180
51
360
0
ARC
5
126
100
AcDbEntity
8
0
100
AcDbCircle
10
-16.000000000000011
20
-29.420250291033359
30
0
40
4.9999999999999982
210
0
220
0
230
1
100
AcDbArc
50
-180
51
0
0
ENDSEC
0
SECTION
2
OBJECTS
0
DICTIONARY
5
C
100
AcDbDictionary
3
ACAD_GROUP
350
D
3
ACAD_MLINESTYLE
350
17
0
DICTIONARY
5
D
100
AcDbDictionary
0
DICTIONARY
5
1A
330
C
100
AcDbDictionary
0
DICTIONARY
5
17
100
AcDbDictionary
0
ENDSEC
0
EOF
